# xmcd
#
# Track frame offsets:
#        150
#        13979
#        32064
#        50266
#        64658
#        83657
#        97489
#        111317
#        129436
#        147666
#        162042
#        181098
#
# Disc length: 2598 seconds
#
# Revision: 0
# Processed by: cddbd v1.5.2PL0 Copyright (c) Steve Scherf et al.
# Submitted via: CDGFix 3.8c
#
DISCID=a40a240c
DTITLE=Various Artist - CB20330
DYEAR=1900
DGENRE=Karaoke
TTITLE0=Chris Ledoux - Cadillac Ranch (Vocals)
TTITLE1=Chris Ledoux - Life Is A Highway (Vocals)
TTITLE2=Chris Ledoux - Stampede (Vocals)
TTITLE3=Chris Ledoux - County Fair (Vocals)
TTITLE4=Chris Ledoux - Silence On The Line (Vocals)
TTITLE5=Chris Ledoux - He Rides The Wild Horses (Vocals)
TTITLE6=Chris Ledoux - Cadillac Ranch
TTITLE7=Chris Ledoux - Life Is A Highway
TTITLE8=Chris Ledoux - Stampede
TTITLE9=Chris Ledoux - County Fair
TTITLE10=Chris Ledoux - Silence On The Line
TTITLE11=Chris Ledoux - He Rides The Wild Horses
EXTD=
EXTT0=
EXTT1=
EXTT2=
EXTT3=
EXTT4=
EXTT5=
EXTT6=
EXTT7=
EXTT8=
EXTT9=
EXTT10=
EXTT11=
PLAYORDER=
